<mxfile host="app.diagrams.net" agent="Mozilla/5.0 (Windows NT 10.0; Win64; x64) AppleWebKit/537.36 (KHTML, like Gecko) Chrome/138.0.0.0 Safari/537.36" version="28.0.9">
  <diagram name="Page-1" id="gxXCrAukzHxfodOp5d42">
    <mxGraphModel dx="1042" dy="527" grid="1" gridSize="10" guides="1" tooltips="1" connect="1" arrows="1" fold="1" page="1" pageScale="1" pageWidth="850" pageHeight="1100" math="0" shadow="0">
      <root>
        <mxCell id="0" />
        <mxCell id="1" parent="0" />
        <mxCell id="hP7NHuq4rLhkgZXhlrEV-1" style="edgeStyle=orthogonalEdgeStyle;rounded=0;orthogonalLoop=1;jettySize=auto;html=1;entryX=0;entryY=0.5;entryDx=0;entryDy=0;" parent="1" target="hP7NHuq4rLhkgZXhlrEV-4" edge="1">
          <mxGeometry relative="1" as="geometry">
            <mxPoint x="230" y="230" as="sourcePoint" />
          </mxGeometry>
        </mxCell>
        <mxCell id="hP7NHuq4rLhkgZXhlrEV-3" style="edgeStyle=orthogonalEdgeStyle;rounded=0;orthogonalLoop=1;jettySize=auto;html=1;exitX=1;exitY=0.5;exitDx=0;exitDy=0;entryX=0;entryY=0.5;entryDx=0;entryDy=0;" parent="1" source="hP7NHuq4rLhkgZXhlrEV-4" target="hP7NHuq4rLhkgZXhlrEV-7" edge="1">
          <mxGeometry relative="1" as="geometry" />
        </mxCell>
        <mxCell id="hP7NHuq4rLhkgZXhlrEV-4" value="&lt;div&gt;&lt;br&gt;&lt;/div&gt;&lt;div&gt;&lt;span style=&quot;background-color: transparent; color: light-dark(rgb(0, 0, 0), rgb(255, 255, 255));&quot;&gt;&lt;br&gt;&lt;/span&gt;&lt;/div&gt;&lt;div&gt;&lt;span style=&quot;background-color: transparent; color: light-dark(rgb(0, 0, 0), rgb(255, 255, 255));&quot;&gt;GenAI powered Telemetry&amp;nbsp;&lt;/span&gt;&lt;/div&gt;&lt;div&gt;&lt;span style=&quot;background-color: transparent; color: light-dark(rgb(0, 0, 0), rgb(255, 255, 255));&quot;&gt;Analysis System&lt;/span&gt;&lt;/div&gt;" style="shape=ellipse;html=1;dashed=0;whiteSpace=wrap;perimeter=ellipsePerimeter;" parent="1" vertex="1">
          <mxGeometry x="320" y="180" width="200" height="100" as="geometry" />
        </mxCell>
        <mxCell id="hP7NHuq4rLhkgZXhlrEV-5" value="0.0" style="whiteSpace=wrap;html=1;strokeWidth=0;strokeColor=light-dark(default, #ffffff);" parent="1" vertex="1">
          <mxGeometry x="400" y="190" width="40" height="20" as="geometry" />
        </mxCell>
        <mxCell id="hP7NHuq4rLhkgZXhlrEV-6" value="" style="endArrow=none;html=1;rounded=0;exitX=0.046;exitY=0.329;exitDx=0;exitDy=0;exitPerimeter=0;entryX=0.982;entryY=0.357;entryDx=0;entryDy=0;entryPerimeter=0;" parent="1" target="hP7NHuq4rLhkgZXhlrEV-4" edge="1">
          <mxGeometry width="50" height="50" relative="1" as="geometry">
            <mxPoint x="323.9999999999998" y="214.45" as="sourcePoint" />
            <mxPoint x="506.79999999999995" y="215.55" as="targetPoint" />
          </mxGeometry>
        </mxCell>
        <mxCell id="hP7NHuq4rLhkgZXhlrEV-7" value="End User" style="html=1;dashed=0;whiteSpace=wrap;" parent="1" vertex="1">
          <mxGeometry x="600" y="205" width="120" height="50" as="geometry" />
        </mxCell>
        <mxCell id="hP7NHuq4rLhkgZXhlrEV-9" value="&lt;span style=&quot;font-size: 10px;&quot;&gt;Response&lt;/span&gt;" style="text;html=1;align=center;verticalAlign=middle;resizable=0;points=[];autosize=1;strokeColor=none;fillColor=none;" parent="1" vertex="1">
          <mxGeometry x="520" y="200" width="70" height="30" as="geometry" />
        </mxCell>
        <mxCell id="v3VQl4kVXRfFLQ61cIJZ-1" value="" style="endArrow=none;html=1;rounded=0;" edge="1" parent="1">
          <mxGeometry width="50" height="50" relative="1" as="geometry">
            <mxPoint x="110" y="205" as="sourcePoint" />
            <mxPoint x="230" y="205" as="targetPoint" />
          </mxGeometry>
        </mxCell>
        <mxCell id="v3VQl4kVXRfFLQ61cIJZ-2" value="" style="endArrow=none;html=1;rounded=0;" edge="1" parent="1">
          <mxGeometry width="50" height="50" relative="1" as="geometry">
            <mxPoint x="110" y="255" as="sourcePoint" />
            <mxPoint x="230" y="255" as="targetPoint" />
          </mxGeometry>
        </mxCell>
        <mxCell id="v3VQl4kVXRfFLQ61cIJZ-3" value="Telemetric Data" style="text;html=1;align=center;verticalAlign=middle;resizable=0;points=[];autosize=1;strokeColor=none;fillColor=none;" vertex="1" parent="1">
          <mxGeometry x="120" y="215" width="110" height="30" as="geometry" />
        </mxCell>
      </root>
    </mxGraphModel>
  </diagram>
</mxfile>
